<svg width="37" height="37" viewBox="0 0 37 37" fill="none" xmlns="http://www.w3.org/2000/svg">
<rect width="36.8438" height="36.8438" rx="18.4219" fill="white" fill-opacity="0.5"/>
<path d="M25.8079 17.2867C25.2631 15.5395 24.0925 14.0497 22.5164 13.0974C20.9403 12.1451 19.0672 11.7959 17.2493 12.1154C15.4315 12.4349 13.7941 13.4012 12.6451 14.8325C11.4961 16.2639 10.9147 18.0616 11.0101 19.8877C11.1056 21.7138 11.8713 23.4425 13.1634 24.7487C14.4555 26.0549 16.1848 26.8485 18.0263 26.9804C19.8677 27.1124 21.6944 26.5735 23.1628 25.4651C24.6312 24.3566 25.6402 22.7551 26 20.9616" stroke="black" stroke-width="1.21" stroke-linecap="round"/>
<path d="M28.0148 13L26.5117 17.9663L22.3845 16.1377" stroke="black" stroke-width="1.21" stroke-linecap="round" stroke-linejoin="round"/>
</svg>
